<svg xmlns="http://www.w3.org/2000/svg" viewBox="0 0 570 120" enable-background="new 0 0 570 120"><path d="M117.03 30.634l-46.363-26.768c-.928-.536-2.072-.536-3 0l-46.364 26.768c-.928.536-1.5 1.526-1.5 2.598v52.536c0 1.072.572 2.062 1.5 2.598l46.363 26.768c.928.536 2.072.536 3 0l46.363-26.768c.928-.536 1.5-1.526 1.5-2.598v-52.536c.001-1.072-.571-2.062-1.499-2.598zm-51.863-16.335v8.078c0 .179-.095.344-.25.433l-14.333 8.256c-.334.192-.334.674 0 .867l14.333 8.256c.155.089.25.254.25.433v8.078c0 .385-.416.625-.75.433l-29.862-17.2c-.334-.192-.334-.674 0-.867l29.862-17.201c.333-.191.75.049.75.434zm8 34.402v-8.078c0-.179.095-.344.25-.433l14.333-8.256c.334-.192.334-.674 0-.867l-14.333-8.257c-.155-.089-.25-.254-.25-.433v-8.078c0-.385.416-.625.75-.433l29.862 17.201c.334.192.334.674 0 .867l-29.863 17.2c-.333.192-.749-.048-.749-.433zm142.356 28.658c.191.175.223.469.067.676-1.122 1.488-2.46 2.891-4.012 4.211-1.68 1.428-3.543 2.675-5.586 3.738-2.045 1.064-4.258 1.904-6.637 2.52-2.381.616-4.859.925-7.434.925-4.256 0-8.148-.729-11.676-2.185-3.529-1.455-6.566-3.486-9.114-6.09-2.549-2.604-4.523-5.684-5.922-9.24-1.4-3.556-2.101-7.461-2.101-11.718 0-4.144.7-8.022 2.101-11.634 1.398-3.612 3.373-6.748 5.922-9.408 2.548-2.659 5.599-4.759 9.155-6.3 3.557-1.54 7.49-2.31 11.803-2.31 5.207 0 9.756.953 13.65 2.856 3.759 1.84 6.905 4.464 9.437 7.871.151.204.126.494-.057.669l-7.925 7.617c-.216.208-.561.173-.741-.066-1.607-2.141-3.484-3.879-5.628-5.213-2.297-1.428-5.041-2.142-8.232-2.142-2.52 0-4.789.462-6.805 1.386s-3.725 2.198-5.123 3.822c-1.4 1.625-2.479 3.515-3.234 5.67-.756 2.156-1.135 4.438-1.135 6.846 0 2.465.379 4.761 1.135 6.888.756 2.129 1.834 3.978 3.234 5.544 1.398 1.568 3.078 2.801 5.039 3.696 1.961.896 4.172 1.344 6.637 1.344 2.016 0 3.766-.21 5.25-.63 1.482-.42 2.799-.979 3.947-1.68s2.17-1.513 3.066-2.437c.777-.802 1.535-1.614 2.271-2.438.185-.207.499-.223.704-.036l7.944 7.248zm6.554-44.886c0-.276.224-.5.5-.5h20.332c3.247 0 6.104.462 8.568 1.386 2.463.924 4.521 2.184 6.174 3.78 1.651 1.596 2.884 3.458 3.696 5.586.811 2.129 1.218 4.397 1.218 6.804 0 3.641-.798 6.819-2.395 9.534-1.517 2.584-3.631 4.672-6.338 6.267-.233.137-.319.431-.188.667l11.785 21.261c.185.333-.056.742-.437.742h-12.787c-.189 0-.361-.106-.446-.274l-10.139-20.032c-.085-.168-.258-.274-.446-.274h-6.249c-.276 0-.5.224-.5.5v19.58c0 .276-.224.5-.5.5h-11.348c-.276 0-.5-.224-.5-.5v-55.027zm20.16 24.783c2.352 0 4.2-.699 5.544-2.1 1.344-1.399 2.016-3.163 2.016-5.292 0-2.295-.672-4.116-2.016-5.46-1.344-1.344-3.192-2.016-5.544-2.016h-7.312c-.276 0-.5.224-.5.5v13.868c0 .276.224.5.5.5h7.312zm30.907-25.283h37.304c.276 0 .5.224.5.5v10.088c0 .276-.224.5-.5.5h-24.62c-.276 0-.5.224-.5.5v9.92c0 .276.224.5.5.5h18.908c.276 0 .5.224.5.5v9.752c0 .276-.224.5-.5.5h-18.908c-.276 0-.5.224-.5.5v11.096c0 .276.224.5.5.5h26.469c.276 0 .5.224.5.5v10.171c0 .276-.224.5-.5.5h-39.152c-.276 0-.5-.224-.5-.5v-55.027c-.001-.276.223-.5.499-.5zm64.191 0h13.332c.21 0 .397.131.47.328l20.13 55.027c.119.326-.122.672-.47.672h-12.785c-.215 0-.406-.138-.474-.342l-4.056-12.168c-.068-.204-.259-.342-.474-.342h-19.019c-.215 0-.406.138-.474.342l-4.055 12.168c-.07.204-.261.342-.476.342h-12.192c-.349 0-.59-.348-.468-.675l20.543-55.027c.073-.196.259-.325.468-.325zm12.799 32.694l-6.125-19.052c-.148-.461-.799-.463-.951-.003l-6.275 19.052c-.107.323.134.656.475.656h12.399c.34 0 .581-.33.477-.653zm33.225-21.522h-17.145c-.276 0-.5-.224-.5-.5v-10.172c0-.276.224-.5.5-.5h47.973c.276 0 .5.224.5.5v10.172c0 .276-.224.5-.5.5h-17.061c-.276 0-.5.224-.5.5v43.855c0 .276-.224.5-.5.5h-11.768c-.276 0-.5-.224-.5-.5v-43.855c.001-.277-.223-.5-.499-.5zm39.052-11.172h37.304c.276 0 .5.224.5.5v10.088c0 .276-.224.5-.5.5h-24.62c-.276 0-.5.224-.5.5v9.92c0 .276.224.5.5.5h18.908c.276 0 .5.224.5.5v9.752c0 .276-.224.5-.5.5h-18.908c-.276 0-.5.224-.5.5v11.096c0 .276.224.5.5.5h26.469c.276 0 .5.224.5.5v10.171c0 .276-.224.5-.5.5h-39.152c-.276 0-.5-.224-.5-.5v-55.027c-.001-.276.223-.5.499-.5zm51.798 45.012c.204-.18.516-.156.699.045 1.515 1.658 3.043 2.88 4.583 3.662 1.651.84 3.625 1.26 5.922 1.26 1.345 0 2.59-.21 3.738-.63 1.147-.42 2.17-1.077 3.066-1.974.895-.896 1.596-2.044 2.1-3.444.504-1.399.756-3.079.756-5.04v-38.391c0-.276.224-.5.5-.5h7.064c.276 0 .5.224.5.5v39.063c0 3.249-.477 6.006-1.429 8.274-.952 2.268-2.226 4.115-3.821 5.544-1.597 1.428-3.459 2.465-5.586 3.107-2.129.644-4.368.967-6.721.967-4.145 0-7.532-.729-10.164-2.185-2.483-1.372-4.566-3.095-6.251-5.165-.17-.209-.14-.52.062-.699l4.982-4.394zm40.905-2.254c.205-.186.514-.173.699.033.699.776 1.471 1.562 2.317 2.359.979.924 2.086 1.751 3.318 2.479 1.23.729 2.604 1.316 4.116 1.764 1.512.449 3.163.672 4.956.672 3.695 0 6.579-.84 8.651-2.52 2.071-1.681 3.108-3.948 3.108-6.805 0-3.079-1.176-5.389-3.528-6.93-2.352-1.539-5.741-2.785-10.164-3.738-2.408-.504-4.592-1.203-6.552-2.1-1.961-.895-3.654-2.016-5.082-3.36-1.428-1.344-2.534-2.898-3.318-4.662-.784-1.764-1.176-3.766-1.176-6.006 0-2.071.392-4.032 1.176-5.88.784-1.848 1.96-3.472 3.528-4.872 1.567-1.399 3.528-2.52 5.88-3.36 2.353-.84 5.067-1.26 8.148-1.26 2.743 0 5.109.294 7.098.882 1.987.588 3.682 1.302 5.082 2.142 1.399.84 2.52 1.709 3.36 2.604.665.71 1.206 1.314 1.626 1.813.173.206.156.51-.042.692l-4.656 4.293c-.201.185-.512.179-.698-.021-.309-.332-.704-.729-1.186-1.191-.672-.643-1.526-1.273-2.562-1.89-1.037-.616-2.24-1.134-3.611-1.554-1.373-.42-2.955-.63-4.746-.63-1.793 0-3.333.239-4.62.714-1.289.477-2.353 1.092-3.192 1.848s-1.457 1.61-1.848 2.562c-.393.953-.588 1.904-.588 2.856 0 1.4.294 2.591.882 3.57.588.98 1.441 1.848 2.562 2.604 1.12.756 2.506 1.4 4.158 1.932 1.651.533 3.541 1.05 5.67 1.554 2.071.504 4.102 1.163 6.09 1.974 1.987.812 3.766 1.905 5.334 3.276 1.567 1.373 2.814 3.052 3.738 5.04.924 1.988 1.386 4.41 1.386 7.266 0 2.409-.504 4.62-1.512 6.637-1.008 2.016-2.394 3.767-4.158 5.25-1.764 1.484-3.851 2.633-6.258 3.443-2.408.812-5.013 1.219-7.812 1.219-2.633 0-5.027-.309-7.183-.925-2.156-.615-4.116-1.398-5.88-2.352-1.764-.952-3.305-2.002-4.62-3.15-1.174-1.022-2.157-2.035-2.952-3.036-.163-.206-.131-.502.062-.679l4.999-4.557z" fill="#FAFCFF"/></svg>